:FULLY-SPECIFIED
:FORCE-ALL-JOINTS-BE-3DOF
:DEGREES
611
root 5.60847 16.6744 -3.77458 0 0 0
lfemur -17.934 24.2728 -21.9405
ltibia 40.4655 -0 0
lfoot -32.5183 24.7075 0.00131296
ltoes 0 0 0
rfemur -52.8607 -17.8266 27.8611
rtibia 61.7763 -0 0
rfoot 8.00828 29.3006 0.0166778
rtoes -3.82982 0 0
lowerback 0 0 0
upperback 0 0 0
thorax -1.40481 -2.23153 4.11048
lowerneck -8.31524 -9.47685 -0.584843
upperneck 0 0 0
head 6.24369 -6.2127 0.470847
lclavicle 0 0 0
lhumerus 0 0 0
lradius 0 0 0
lwrist 20.6794 0 0
lhand 0 0 0
lfingers 0 0 0
lthumb 0 0 0
rclavicle 0 0 0
rhumerus 0 0 0
rradius 0 0 0
rwrist -58.3528 0 0
rhand -27.0039 -22.4121 0.00610955
rfingers 0 0 0
rthumb -0.423868 -52.3905 0.00587993
612
root 5.60143 16.6863 -3.77736 0 0 0
lfemur -17.7496 23.9719 -21.9139
ltibia 40.1558 -0 0
lfoot -32.5337 24.24 0.00289149
ltoes 0 0 0
rfemur -52.6183 -17.8543 27.5215
rtibia 61.8087 -0 0
rfoot 7.92413 28.2277 0.036751
rtoes -3.82771 0 0
lowerback 0 0 0
upperback 0 0 0
thorax -1.41098 -2.22713 4.10912
lowerneck -8.39131 -9.40584 -0.525187
upperneck 0 0 0
head 6.23445 -6.16705 0.453749
lclavicle 0 0 0
lhumerus 0 0 0
lradius 0 0 0
lwrist 20.6952 0 0
lhand 0 0 0
lfingers 0 0 0
lthumb 0 0 0
rclavicle 0 0 0
rhumerus 0 0 0
rradius 0 0 0
rwrist -57.826 0 0
rhand -27.1208 -22.6995 0.0134538
rfingers 0 0 0
rthumb -0.536785 -52.6768 0.0129482
613
root 5.59861 16.699 -3.77941 0 0 0
lfemur -17.5298 23.6118 -21.8836
ltibia 39.7853 -0 0
lfoot -32.5521 23.6807 0.00461472
ltoes 0 0 0
rfemur -52.328 -17.8855 27.115
rtibia 61.8474 -0 0
rfoot 7.82299 26.9441 0.0586918
rtoes -3.82519 0 0
lowerback 0 0 0
upperback 0 0 0
thorax -1.41836 -2.22186 4.1075
lowerneck -8.4822 -9.32077 -0.453955
upperneck 0 0 0
head 6.22339 -6.11243 0.433284
lclavicle 0 0 0
lhumerus 0 0 0
lradius 0 0 0
lwrist 20.714 0 0
lhand 0 0 0
lfingers 0 0 0
lthumb 0 0 0
rclavicle 0 0 0
rhumerus 0 0 0
rradius 0 0 0
rwrist -57.1956 0 0
rhand -27.2607 -23.0434 0.02147
rfingers 0 0 0
rthumb -0.671926 -53.0195 0.020663
614
root 5.59957 16.7122 -3.78062 0 0 0
lfemur -17.2797 23.2005 -21.8509
ltibia 39.3622 -0 0
lfoot -32.5733 23.0421 0.0063618
ltoes 0 0 0
rfemur -51.9962 -17.9188 26.6506
rtibia 61.8917 -0 0
rfoot 7.70693 25.4783 0.0809656
rtoes -3.82232 0 0
lowerback 0 0 0
upperback 0 0 0
thorax -1.42679 -2.21584 4.10564
lowerneck -8.58583 -9.2235 -0.372812
upperneck 0 0 0
head 6.21074 -6.05007 0.409908
lclavicle 0 0 0
lhumerus 0 0 0
lradius 0 0 0
lwrist 20.7356 0 0
lhand 0 0 0
lfingers 0 0 0
lthumb 0 0 0
rclavicle 0 0 0
rhumerus 0 0 0
rradius 0 0 0
rwrist -56.476 0 0
rhand -27.4206 -23.436 0.0295958
rfingers 0 0 0
rthumb -0.826282 -53.4108 0.0284834
615
root 5.60388 16.7257 -3.78089 0 0 0
lfemur -17.0047 22.746 -21.8172
ltibia 38.8949 -0 0
lfoot -32.5966 22.3367 0.00801811
ltoes 0 0 0
rfemur -51.6294 -17.9526 26.1372
rtibia 61.9406 -0 0
rfoot 7.57813 23.8593 0.102109
rtoes -3.81915 0 0
lowerback 0 0 0
upperback 0 0 0
thorax -1.4361 -2.2092 4.10358
lowerneck -8.70009 -9.1159 -0.283416
upperneck 0 0 0
head 6.19673 -5.98119 0.384074
lclavicle 0 0 0
lhumerus 0 0 0
lradius 0 0 0
lwrist 20.7594 0 0
lhand 0 0 0
lfingers 0 0 0
lthumb 0 0 0
rclavicle 0 0 0
rhumerus 0 0 0
rradius 0 0 0
rwrist -55.681 0 0
rhand -27.5972 -23.8697 0.0372981
rfingers 0 0 0
rthumb -0.996838 -53.843 0.0358961
616
root 5.61112 16.7394 -3.78009 0 0 0
lfemur -16.7098 22.2564 -21.7836
ltibia 38.3916 -0 0
lfoot -32.6217 21.5771 0.00948049
ltoes 0 0 0
rfemur -51.2338 -17.9856 25.5841
rtibia 61.9932 -0 0
rfoot 7.43881 22.1156 0.120799
rtoes -3.81573 0 0
lowerback 0 0 0
upperback 0 0 0
thorax -1.44612 -2.20204 4.10137
lowerneck -8.82292 -8.99982 -0.187416
upperneck 0 0 0
head 6.18162 -5.90702 0.356237
lclavicle 0 0 0
lhumerus 0 0 0
lradius 0 0 0
lwrist 20.7851 0 0
lhand 0 0 0
lfingers 0 0 0
lthumb 0 0 0
rclavicle 0 0 0
rhumerus 0 0 0
rradius 0 0 0
rwrist -54.825 0 0
rhand -27.7874 -24.3368 0.0440975
rfingers 0 0 0
rthumb -1.18057 -54.3085 0.0424399
617
root 5.62085 16.7531 -3.77812 0 0 0
lfemur -16.4002 21.7398 -21.7513
ltibia 37.8607 -0 0
lfoot -32.6483 20.7757 0.0106618
ltoes 0 0 0
rfemur -50.8162 -18.0163 25.0001
rtibia 62.0488 -0 0
rfoot 7.29129 20.2761 0.135912
rtoes -3.81212 0 0
lowerback 0 0 0
upperback 0 0 0
thorax -1.4567 -2.1945 4.09903
lowerneck -8.95223 -8.87715 -0.0864481
upperneck 0 0 0
head 6.16563 -5.82879 0.326854
lclavicle 0 0 0
lhumerus 0 0 0
lradius 0 0 0
lwrist 20.8122 0 0
lhand 0 0 0
lfingers 0 0 0
lthumb 0 0 0
rclavicle 0 0 0
rhumerus 0 0 0
rradius 0 0 0
rwrist -53.9218 0 0
rhand -27.9882 -24.8296 0.0495891
rfingers 0 0 0
rthumb -1.37445 -54.7995 0.0477251
618
root 5.63264 16.7665 -3.77486 0 0 0
lfemur -16.0808 21.2041 -21.7211
ltibia 37.3105 -0 0
lfoot -32.6758 19.9451 0.0114942
ltoes 0 0 0
rfemur -50.3829 -18.044 24.3946
rtibia 62.1063 -0 0
rfoot 7.13796 18.3695 0.146569
rtoes -3.80838 0 0
lowerback 0 0 0
upperback 0 0 0
thorax -1.46766 -2.18668 4.09661
lowerneck -9.08599 -8.74976 0.0178696
upperneck 0 0 0
head 6.14903 -5.74771 0.29638
lclavicle 0 0 0
lhumerus 0 0 0
lradius 0 0 0
lwrist 20.8402 0 0
lhand 0 0 0
lfingers 0 0 0
lthumb 0 0 0
rclavicle 0 0 0
rhumerus 0 0 0
rradius 0 0 0
rwrist -52.9858 0 0
rhand -28.1963 -25.3404 0.0534586
rfingers 0 0 0
rthumb -1.57544 -55.3085 0.0514491
619
root 5.64607 16.7795 -3.7702 0 0 0
lfemur -15.7564 20.6575 -21.6936
ltibia 36.7491 -0 0
lfoot -32.7039 19.0979 0.0119321
ltoes 0 0 0
rfemur -49.9405 -18.0677 23.7766
rtibia 62.1651 -0 0
rfoot 6.98127 16.4245 0.152179
rtoes -3.80457 0 0
lowerback 0 0 0
upperback 0 0 0
thorax -1.47884 -2.1787 4.09413
lowerneck -9.22214 -8.61957 0.123937
upperneck 0 0 0
head 6.13204 -5.66502 0.265275
lclavicle 0 0 0
lhumerus 0 0 0
lradius 0 0 0
lwrist 20.8688 0 0
lhand 0 0 0
lfingers 0 0 0
lthumb 0 0 0
rclavicle 0 0 0
rhumerus 0 0 0
rradius 0 0 0
rwrist -52.0309 0 0
rhand -28.4086 -25.8614 0.0554941
rfingers 0 0 0
rthumb -1.78049 -55.8277 0.0534081
620
root 5.6607 16.7918 -3.76402 0 0 0
lfemur -15.4319 20.1081 -21.6695
ltibia 36.185 -0 0
lfoot -32.7321 18.2464 0.0119537
ltoes 0 0 0
rfemur -49.4957 -18.0869 23.1553
rtibia 62.2241 -0 0
rfoot 6.82371 14.47 0.152455
rtoes -3.80074 0 0
lowerback 0 0 0
upperback 0 0 0
thorax -1.49008 -2.17068 4.09164
lowerneck -9.35868 -8.48848 0.230176
upperneck 0 0 0
head 6.11494 -5.58192 0.233995
lclavicle 0 0 0
lhumerus 0 0 0
lradius 0 0 0
lwrist 20.8976 0 0
lhand 0 0 0
lfingers 0 0 0
lthumb 0 0 0
rclavicle 0 0 0
rhumerus 0 0 0
rradius 0 0 0
rwrist -51.0714 0 0
rhand -28.622 -26.3851 0.0555945
rfingers 0 0 0
rthumb -1.98656 -56.3495 0.0535047
621
root 5.67611 16.8033 -3.75622 0 0 0
lfemur -15.1119 19.564 -21.6489
ltibia 35.6265 -0 0
lfoot -32.7601 17.4033 0.0115617
ltoes 0 0 0
rfemur -49.055 -18.1014 22.5399
rtibia 62.2825 -0 0
rfoot 6.66778 12.5346 0.147434
rtoes -3.79694 0 0
lowerback 0 0 0
upperback 0 0 0
thorax -1.50121 -2.16274 4.08918
lowerneck -9.49358 -8.35844 0.335026
upperneck 0 0 0
head 6.09795 -5.49965 0.203002
lclavicle 0 0 0
lhumerus 0 0 0
lradius 0 0 0
lwrist 20.9261 0 0
lhand 0 0 0
lfingers 0 0 0
lthumb 0 0 0
rclavicle 0 0 0
rhumerus 0 0 0
rradius 0 0 0
rwrist -50.1212 0 0
rhand -28.8332 -26.9035 0.0537725
rfingers 0 0 0
rthumb -2.1906 -56.8662 0.0517512
622
root 5.69186 16.8137 -3.74667 0 0 0
lfemur -14.8011 19.0332 -21.632
ltibia 35.0817 -0 0
lfoot -32.7873 16.581 0.0107833
ltoes 0 0 0
rfemur -48.625 -18.1113 21.9396
rtibia 62.3395 -0 0
rfoot 6.51595 10.6472 0.137468
rtoes -3.79324 0 0
lowerback 0 0 0
upperback 0 0 0
thorax -1.51206 -2.155 4.08677
lowerneck -9.62488 -8.23138 0.436949
upperneck 0 0 0
head 6.08135 -5.41942 0.172757
lclavicle 0 0 0
lhumerus 0 0 0
lradius 0 0 0
lwrist 20.9538 0 0
lhand 0 0 0
lfingers 0 0 0
lthumb 0 0 0
rclavicle 0 0 0
rhumerus 0 0 0
rradius 0 0 0
rwrist -49.1946 0 0
rhand -29.0393 -27.4092 0.0501542
rfingers 0 0 0
rthumb -2.38957 -57.3701 0.0482689
623
root 5.70754 16.8229 -3.73528 0 0 0
lfemur -14.5039 18.524 -21.6187
ltibia 34.5591 -0 0
lfoot -32.8134 15.7922 0.00966904
ltoes 0 0 0
rfemur -48.2124 -18.1167 21.3636
rtibia 62.3942 -0 0
rfoot 6.37068 8.83642 0.123211
rtoes -3.78969 0 0
lowerback 0 0 0
upperback 0 0 0
thorax -1.52248 -2.14757 4.08446
lowerneck -9.75058 -8.10926 0.534425
upperneck 0 0 0
head 6.06538 -5.34246 0.143721
lclavicle 0 0 0
lhumerus 0 0 0
lradius 0 0 0
lwrist 20.9805 0 0
lhand 0 0 0
lfingers 0 0 0
lthumb 0 0 0
rclavicle 0 0 0
rhumerus 0 0 0
rradius 0 0 0
rwrist -48.3055 0 0
rhand -29.2369 -27.8943 0.0449741
rfingers 0 0 0
rthumb -2.58043 -57.8535 0.0432836
624
root 5.7227 16.8307 -3.72191 0 0 0
lfemur -14.225 18.0443 -21.6087
ltibia 34.0669 -0 0
lfoot -32.838 15.0492 0.00829075
ltoes 0 0 0
rfemur -47.8238 -18.1182 20.821
rtibia 62.4457 -0 0
rfoot 6.23433 7.13108 0.105592
rtoes -3.78635 0 0
lowerback 0 0 0
upperback 0 0 0
thorax -1.53228 -2.14058 4.08229
lowerneck -9.86875 -7.99405 0.625954
upperneck 0 0 0
head 6.05031 -5.26998 0.11636
lclavicle 0 0 0
lhumerus 0 0 0
lradius 0 0 0
lwrist 21.0056 0 0
lhand 0 0 0
lfingers 0 0 0
lthumb 0 0 0
rclavicle 0 0 0
rhumerus 0 0 0
rradius 0 0 0
rwrist -47.4683 0 0
rhand -29.4229 -28.3511 0.0385658
rfingers 0 0 0
rthumb -2.76013 -58.3087 0.0371162
625
root 5.73692 16.8368 -3.70646 0 0 0
lfemur -13.9687 17.6023 -21.6017
ltibia 33.6134 -0 0
lfoot -32.8607 14.3647 0.0067387
ltoes 0 0 0
rfemur -47.4658 -18.1164 20.3212
rtibia 62.4931 -0 0
rfoot 6.10922 5.55991 0.0857746
rtoes -3.78327 0 0
lowerback 0 0 0
upperback 0 0 0
thorax -1.54132 -2.13414 4.08028
lowerneck -9.97742 -7.88775 0.710049
upperneck 0 0 0
head 6.03639 -5.20322 0.0911356
lclavicle 0 0 0
lhumerus 0 0 0
lradius 0 0 0
lwrist 21.0287 0 0
lhand 0 0 0
lfingers 0 0 0
lthumb 0 0 0
rclavicle 0 0 0
rhumerus 0 0 0
rradius 0 0 0
rwrist -46.6969 0 0
rhand -29.5943 -28.772 0.0313486
rfingers 0 0 0
rthumb -2.92565 -58.7282 0.0301703
626
root 5.74977 16.8411 -3.68882 0 0 0
lfemur -13.7396 17.2061 -21.5972
ltibia 33.2069 -0 0
lfoot -32.881 13.7512 0.00511773
ltoes 0 0 0
rfemur -47.1449 -18.1124 19.8732
rtibia 62.5356 -0 0
rfoot 5.99758 4.15164 0.0651017
rtoes -3.7805 0 0
lowerback 0 0 0
upperback 0 0 0
thorax -1.54942 -2.12836 4.07848
lowerneck -10.0747 -7.79232 0.785235
upperneck 0 0 0
head 6.02389 -5.14337 0.0685148
lclavicle 0 0 0
lhumerus 0 0 0
lradius 0 0 0
lwrist 21.0494 0 0
lhand 0 0 0
lfingers 0 0 0
lthumb 0 0 0
rclavicle 0 0 0
rhumerus 0 0 0
rradius 0 0 0
rwrist -46.0054 0 0
rhand -29.7479 -29.1493 0.0238097
rfingers 0 0 0
rthumb -3.07397 -59.1041 0.0229148
627
root 5.76082 16.8434 -3.66888 0 0 0
lfemur -13.5421 16.8638 -21.5947
ltibia 32.8558 -0 0
lfoot -32.8985 13.2211 0.00354253
ltoes 0 0 0
rfemur -46.8676 -18.1069 19.4861
rtibia 62.5724 -0 0
rfoot 5.90157 2.93502 0.0450369
rtoes -3.77812 0 0
lowerback 0 0 0
upperback 0 0 0
thorax -1.55642 -2.12337 4.07693
lowerneck -10.1586 -7.70978 0.850047
upperneck 0 0 0
head 6.01308 -5.09168 0.0489628
lclavicle 0 0 0
lhumerus 0 0 0
lradius 0 0 0
lwrist 21.0673 0 0
lhand 0 0 0
lfingers 0 0 0
lthumb 0 0 0
rclavicle 0 0 0
rhumerus 0 0 0
rradius 0 0 0
rwrist -45.408 0 0
rhand -29.8805 -29.4752 0.0164825
rfingers 0 0 0
rthumb -3.20206 -59.4289 0.015863
